inDegrees=no
num_controls=7
num_derivatives=13
num_iterations=104
num_multipliers=7
num_parameters=0
num_slacks=7
num_states=26
objective=5.355411
objective_accelerations=0.792584
objective_balance=0.023622
objective_effort=0.248339
objective_height=4.263922
objective_ligament=0.026944
solver_duration=2197.798624
status=Solve_Succeeded
success=true
DataType=double
version=3
OpenSimVersion=4.4-2022-07-23-0e9fedc
endheader
time	/jointset/ground_pelvis/pelvis_tilt/value	/jointset/ground_pelvis/pelvis_tx/value	/jointset/ground_pelvis/pelvis_ty/value	/jointset/hip_l/hip_flexion_l/value	/jointset/hip_l/hip_adduction_l/value	/jointset/hip_l/hip_rotation_l/value	/jointset/back/lumbar_extension/value	/jointset/patellofemoral_l/patellar_flexion_l/value	/jointset/knee_l/knee_flexion_l/value	/jointset/knee_l/knee_adduction_l/value	/jointset/knee_l/knee_rotation_l/value	/jointset/ankle_l/ankle_angle_l/value	/jointset/subtalar_l/subtalar_angle_l/value	/jointset/ground_pelvis/pelvis_tilt/speed	/jointset/ground_pelvis/pelvis_tx/speed	/jointset/ground_pelvis/pelvis_ty/speed	/jointset/hip_l/hip_flexion_l/speed	/jointset/hip_l/hip_adduction_l/speed	/jointset/hip_l/hip_rotation_l/speed	/jointset/back/lumbar_extension/speed	/jointset/patellofemoral_l/patellar_flexion_l/speed	/jointset/knee_l/knee_flexion_l/speed	/jointset/knee_l/knee_adduction_l/speed	/jointset/knee_l/knee_rotation_l/speed	/jointset/ankle_l/ankle_angle_l/speed	/jointset/subtalar_l/subtalar_angle_l/speed	/forceset/tau_hip_flexion_l	/forceset/tau_hip_adduction_l	/forceset/tau_hip_rotation_l	/forceset/tau_knee_flexion_l	/forceset/tau_ankle_angle_l	/forceset/tau_subtalar_angle_l	/forceset/tau_lumbar_extension	lambda_cid13_p0	lambda_cid13_p1	lambda_cid13_p2	lambda_cid13_p3	lambda_cid13_p4	lambda_cid13_p5	lambda_cid14_p0	/jointset/ground_pelvis/pelvis_tilt/accel	/jointset/ground_pelvis/pelvis_tx/accel	/jointset/ground_pelvis/pelvis_ty/accel	/jointset/hip_l/hip_flexion_l/accel	/jointset/hip_l/hip_adduction_l/accel	/jointset/hip_l/hip_rotation_l/accel	/jointset/back/lumbar_extension/accel	/jointset/patellofemoral_l/patellar_flexion_l/accel	/jointset/knee_l/knee_flexion_l/accel	/jointset/knee_l/knee_adduction_l/accel	/jointset/knee_l/knee_rotation_l/accel	/jointset/ankle_l/ankle_angle_l/accel	/jointset/subtalar_l/subtalar_angle_l/accel	gamma_cid13_p0	gamma_cid13_p1	gamma_cid13_p2	gamma_cid13_p3	gamma_cid13_p4	gamma_cid13_p5	gamma_cid14_p0
1.5	-0.5857160379410762	-0.0531233431305457	0.7728506247234648	1.295618870681871	-0.3628025872765908	-0.06494443308668724	-0.3519754623102971	0.6351614125849099	0.6351614125849493	-0.09333993084974518	-0.1615386609073663	0.02145095359405156	0.06458566514436234	1.13514718272332	0.5167437592790675	0.5447785480387478	-3.046609303986804	-0.01660118863616254	-0.5118048074549939	0.5873562339466195	-1.713582760175768	-1.713582760175863	-0.2257791775637719	0.09378724777234665	0.07780111815364389	0.01141093110913476	-0.2157762715487228	0.002998492692300595	0.01941436848681958	-0.07528362189137885	0.03693477507044625	0.007656210486154668	0.1739429028818175	-12.09848553542117	-3.217122129419765	2.528232620044914	-7.437839705071883	-429.1485412749366	-63.96956942416457	-17.50852170899545	1.005248842598766	0.9625362613652285	-0.6756952497557767	-1.966131293904705	0.3827193913674555	-0.1370105499058727	2.063407957658233	-0.7789168743452798	-0.7789168743452975	-0.05365327663318319	0.4506811530273645	0.1996634419352988	0.4511619243569033	5.983999083818151e-08	1.835305187067353e-06	-7.632604017123894e-07	3.34551847608002e-07	6.177126368120148e-07	-3.533095144518992e-07	4.113173581353196e-07
1.51	-0.5743146955635411	-0.0479083775536621	0.7782635127303773	1.265056571146228	-0.3629514861676403	-0.07007073976025743	-0.3460010043950336	0.6179884679849443	0.6179884679850598	-0.09560308004471797	-0.1605816034363306	0.02223842793763503	0.06472013481084378	1.144940987539215	0.5261706202033691	0.5376771101579908	-3.065425050727392	-0.01317543540101592	-0.5133883180488492	0.6074540170454101	-1.72077962248705	-1.720779622487193	-0.2268273454696505	0.09763247861023205	0.07969384029937469	0.01548641437558769	-0.2086819709918826	0.002320163898029768	0.02015532047411542	-0.07313869059254686	0.03284957975449877	0.006156718235533323	0.1686647505020827	-13.26563671727545	-2.584227225171285	2.681702001891517	-6.394590453831424	-424.6931446981924	-63.38164059527219	-18.12545729612768	0.9394370956874801	0.9210240745079518	-0.7455334813366308	-1.775416150601721	0.3227219828786417	-0.1584309729986279	1.970763677624608	-0.6561719985720486	-0.6561719985795488	-0.1265423408803976	0.3524549230687979	0.1841330995467254	0.3860254423095589	4.524689488557789e-08	1.924734665196362e-06	-7.139233552221993e-07	3.561345065858625e-07	6.2599946585818e-07	-3.033481121051995e-07	4.094208513385465e-07
1.52	-0.5628208169788985	-0.04260149075422716	0.7836017532736627	1.234318890185919	-0.3630660837876716	-0.07521076347154114	-0.3398280086104468	0.6007503345440277	0.6007503345442526	-0.09787593967731251	-0.1595858914821928	0.02304484080241086	0.06489541609289431	1.153654424139189	0.535128003789335	0.5298490553133561	-3.081685588926634	-0.009740934434263219	-0.5145482149976222	0.6270638078096205	-1.726620528360411	-1.726620528360603	-0.2277212651081094	0.1015181444041267	0.08158882239131383	0.01957325422285836	-0.2015876704348978	0.001641835103801059	0.02089627246179365	-0.07099375929370151	0.02876438443856384	0.00465722598495623	0.1633865981224921	-14.43603499333704	-1.950636869068584	2.834916160875754	-5.344296719695854	-420.2864108760495	-62.86308744934869	-18.72593975721681	0.7891751994150201	0.8686407936981146	-0.8210186425313117	-1.455089585635576	0.3844689376885939	-0.05228782088906581	1.965809490742508	-0.5077255867612837	-0.507725586761367	-0.02280362314950645	0.4587681442295127	0.2001154311769867	0.4534332405204164	2.795254467350163e-08	2.083156165567426e-06	-6.0773124682127e-07	3.873678623578699e-07	6.265076652860064e-07	-2.578106179930789e-07	4.095911548988876e-07
1.53	-0.5512452605044973	-0.03720737327150772	0.7888581923706846	1.203431281020195	-0.3631462690192044	-0.08036124019306123	-0.3334615808102521	0.5834606177216781	0.5834606177218106	-0.1001565131188035	-0.1585519159588239	0.02387035034364829	0.06511169672887356	1.161263424493206	0.5436159479985758	0.5213265643041393	-3.09540365906341	-0.006297322843175331	-0.5154740845840061	0.6461254465861858	-1.731090527254038	-1.731090527254021	-0.2283745907347074	0.1052841598061925	0.08352494677130444	0.02368525945123101	-0.1943250728207188	0.0007517840112029855	0.02155670251434632	-0.06942168872063648	0.02568319981276009	0.002787510373344194	0.1579844245198054	-15.31191370280272	-1.183243123270083	2.938717385543002	-4.551725585431427	-416.0867258682661	-62.15541112015775	-19.3066620855166	0.7177782560271587	0.8270297342629527	-0.8845713783800302	-1.265235534318015	0.3237548761576677	-0.1014272123156238	1.86189522540542	-0.3818733579706476	-0.3818733579394516	-0.08331419684873023	0.3364205769536251	0.1921977964200097	0.3901007988831203	7.788111810735728e-09	2.31488168957067e-06	-4.411306351401813e-07	4.288550834736582e-07	6.18751070744348e-07	-2.169735263801984e-07	4.119574444636624e-07
1.54	-0.5395994108660011	-0.03173074464675157	0.7940260651479624	1.17241947719182	-0.3631921286135432	-0.08551871374738766	-0.3269074257914232	0.5661331536469666	0.5661331536469317	-0.1024429632497802	-0.1574800998135406	0.02471558849969223	0.06536910074411512	1.167713056952462	0.5516302321966762	0.5121357913645794	-3.106524521464993	-0.002875806998573567	-0.5159475815624665	0.664609251534436	-1.734169978839932	-1.734169978839704	-0.2288966029386096	0.1090862687586091	0.08553454535171057	0.02779793007511867	-0.1870624752062628	-0.0001382670812413133	0.02221713256620519	-0.06784961814743569	0.02260201518701756	0.000917794761916251	0.152582250917355	-16.19157490352102	-0.4138753104373592	3.040706109618151	-3.742750145272502	-411.9366683247111	-61.51170459458879	-19.86434907838466	0.5573016204633628	0.7739087914700429	-0.954675028599872	-0.9356480385970903	0.3800497883913639	0.03818670069605905	1.850242725079793	-0.2296161252144978	-0.2296161252144875	0.00345906138940657	0.4659868542999723	0.2148102712600712	0.4535663196233749	-1.105499772795474e-08	2.492338683134077e-06	-3.130837572994238e-07	4.600019229530802e-07	6.126094494006442e-07	-1.713919463443051e-07	4.10421946642419e-07
1.55	-0.527894823543372	-0.02617650576627548	0.7990987631168522	1.14130958174786	-0.3632037493091758	-0.09067930033598785	-0.3201715793832444	0.5487819833899424	0.5487819833900798	-0.1047334809007969	-0.1563705606799101	0.02558124043479547	0.06566776593054739	1.173008278760567	0.5591204283917957	0.5022985122757201	-3.114995969483934	0.0005503661733670713	-0.5161094130835373	0.6824417141705327	-1.735816789104615	-1.735816789104502	-0.2291736833358682	0.1128114213513504	0.0875993268471449	0.03193536131805888	-0.1799906831173816	-0.00121130373637502	0.02282863178637253	-0.06603862483185009	0.01910982058949186	-0.0009653316272109369	0.1472453816450184	-17.21699162248886	0.3779909455570615	3.149212315189204	-2.76123250505484	-407.9502566354017	-60.8416450126588	-20.39558593195127	0.4862405419143872	0.7221056913002125	-1.013926679606752	-0.7340671586069848	0.3232786856196055	-0.03398410448479047	1.732000644070013	-0.09520116774925876	-0.09520116776658437	-0.03780230142032894	0.3241066514516346	0.2028970751269486	0.3934721649106955	-2.837571300194969e-08	2.6072688916255e-06	-2.294574858399151e-07	4.792348444601679e-07	6.083285580458883e-07	-1.203438905166798e-07	4.043909111807635e-07
1.56	-0.5161431623864539	-0.02055025879229546	0.8040699538287384	1.11012873702874	-0.3631812327522611	-0.09583962844497938	-0.3132609578264556	0.5314217474922401	0.531421747492372	-0.1070256714986607	-0.1552241045821059	0.02646765718214509	0.06600773355706706	1.177127823805838	0.5660318508974604	0.4918343399638659	-3.120714376505479	0.003951643506232293	-0.515895885643622	0.6995642812544515	-1.735983106995441	-1.735983106995441	-0.2292311921785422	0.1164696615317091	0.08968750780026721	0.03605841809227165	-0.1729188910281575	-0.002284340391332516	0.023440131005009	-0.06422763151606097	0.01561762599203057	-0.002848458016121182	0.1419085123729744	-18.24738472066658	1.172953462503237	3.254684071220488	-1.755148125637455	-404.0278576691974	-60.23112437790091	-20.89705925601369	0.3221662678966732	0.6581540535790575	-1.080053673198826	-0.3850398391180971	0.3750706205763631	0.113258492893664	1.708263614644521	0.0664823495571427	0.06648234955714298	0.04737337230613159	0.4526043718237199	0.2194901627975583	0.4506914258778379	-4.246509636436713e-08	2.744611756291977e-06	-1.505269582928313e-07	4.93383566948372e-07	6.133054252529486e-07	-6.878104723595353e-08	4.01219806282919e-07
1.57	-0.504356282264229	-0.01485788110776937	0.8089334951778081	1.078904454111536	-0.3631248284429387	-0.100996214375341	-0.3061829718718825	0.5140670785607917	0.5140670785609408	-0.1093173759773087	-0.154041589091493	0.02737495389431708	0.06638882765075287	1.180041194239407	0.5723374158639924	0.4807790416154338	-3.123668539073051	0.007316526789258408	-0.5153222009181404	0.7158852880893966	-1.734704119396615	-1.734704119396493	-0.2291071538288255	0.1200489395164543	0.09176932024905485	0.04014685511528865	-0.1657748178589275	-0.003553855204537849	0.02395556838554314	-0.06278895488201858	0.01272398970264285	-0.00496584773979715	0.1364902103796679	-19.11264162421137	2.058636312245265	3.325252656557624	-0.8570202672294974	-400.3668004778293	-59.50732471776472	-21.36611378158634	0.2448912003615512	0.600918329156377	-1.132373274310275	-0.1795253845773428	0.3147951487097064	0.04461719376810946	1.571875983148367	0.1955105774468785	0.1955105774650402	-0.004132490023611743	0.3127796786196536	0.2022210264424193	0.3854205799185747	-5.251531483731273e-08	2.90997044117727e-06	-7.746611063627879e-08	5.011770406629719e-07	6.298544906622789e-07	-1.657471963885088e-08	4.016236145898383e-07
1.58	-0.4925464746837918	-0.009105615651385356	0.8136836624716647	1.047664845384899	-0.3630352557074486	-0.1061440247121684	-0.2989462044959042	0.4967325802278747	0.4967325802279363	-0.1116076503841687	-0.1528228427874573	0.02830300757908458	0.0668103062625521	1.181713315443918	0.5780094052690441	0.4691595289213151	-3.123779538400664	0.01058532873400777	-0.5141407669369282	0.7313205655334986	-1.731948987301712	-1.731948987301468	-0.2289451777321742	0.123715824173988	0.09383890231877731	0.04413532171452109	-0.1586307446893473	-0.004823370017610718	0.0244710057650703	-0.061350278247808	0.009830353413302864	-0.007083237463311852	0.1310719083866698	-19.98187236472162	2.94832260959285	3.391405674404228	0.0631741035496516	-396.7512569624415	-58.83325299589847	-21.80386508695004	0.07391642208525528	0.5314389412828939	-1.192896542336156	0.1835928088738005	0.3558543529210971	0.234808344040104	1.531117736476206	0.3617112487724604	0.3617112487724725	0.0549609216929493	0.4701257063816413	0.2170440869843751	0.4306973411208957	-8.042928405587994e-08	3.223524354133573e-06	2.16224327507093e-07	5.361821067182535e-07	5.783830162700409e-07	2.176880328320138e-08	3.900269453522765e-07
1.59	-0.4807264178045816	-0.003299917947797997	0.8183149239681674	1.016438869130557	-0.3629128228799842	-0.1112797536759073	-0.291559689488069	0.4794334388981848	0.479433438898262	-0.1138938641616973	-0.151569170778575	0.0292518770173278	0.06727192789021091	1.18208025971041	0.5830137112454223	0.4570082921225663	-3.120914508688379	0.01388323861803012	-0.5129185696629812	0.7458023609941811	-1.727613616913859	-1.72761361691362	-0.2282942939948805	0.1270082756153683	0.09593249561404678	0.04817032099061298	-0.1514079220618514	-0.006325902850407877	0.02485559226622043	-0.06033230525477429	0.007554878798036201	-0.009333661080368925	0.1255696589280629	-20.67689430696744	3.88656106107173	3.425512621994629	0.8633466840923449	-393.4475903371825	-58.13792167244475	-22.21003095542645	-0.01458336117987138	0.4675929925362414	-1.238839205554119	0.4131439167733811	0.3132628427663177	0.07911996029995776	1.379699195801893	0.5092300848068428	0.5092300848058587	0.07146391814244002	0.2573096925823675	0.2052581013541342	0.3863252972194248	-1.325869150006466e-07	3.738200362329093e-06	8.093406384539886e-07	6.081171909501725e-07	4.345979521471079e-07	4.129851986054345e-08	3.6214391373292e-07
